<svg width="38" height="40" viewBox="0 0 38 40" fill="none" xmlns="http://www.w3.org/2000/svg">
<ellipse cx="19" cy="19.783" rx="19" ry="19.783" fill="#B8E2FE"/>
<path d="M13.375 23.793C11.5117 23.793 10 22.1764 10 20.1839C10 18.5862 10.9703 17.229 12.3168 16.7553C12.2711 16.5035 12.25 16.2403 12.25 15.9734C12.25 13.6463 14.0113 11.7628 16.1875 11.7628C17.7027 11.7628 19.0176 12.6764 19.675 14.0185C20.1918 13.3756 20.9582 12.9658 21.8125 12.9658C23.3664 12.9658 24.625 14.3117 24.625 15.9734C24.625 16.1801 24.6039 16.3794 24.5687 16.5749H24.625C26.4883 16.5749 28 18.1914 28 20.1839C28 22.1764 26.4883 23.793 24.625 23.793H13.375ZM13.4313 26.3569C13.4699 26.2629 13.5578 26.199 13.6562 26.199C13.7547 26.199 13.8426 26.2592 13.8812 26.3569L14.943 28.9209C15.0203 29.1126 15.0625 29.3156 15.0625 29.5224C15.0625 30.3457 14.4262 31.0111 13.6562 31.0111C12.8863 31.0111 12.25 30.3457 12.25 29.5224C12.25 29.3156 12.2922 29.1088 12.3695 28.9209L13.4313 26.3569ZM18.775 26.3569C18.8137 26.2629 18.9016 26.199 19 26.199C19.0984 26.199 19.1863 26.2592 19.225 26.3569L20.2867 28.9209C20.3641 29.1126 20.4062 29.3156 20.4062 29.5224C20.4062 30.3457 19.7699 31.0111 19 31.0111C18.2301 31.0111 17.5938 30.3457 17.5938 29.5224C17.5938 29.3156 17.6359 29.1088 17.7133 28.9209L18.775 26.3569ZM23.057 28.9209L24.1188 26.3569C24.1574 26.2629 24.2453 26.199 24.3438 26.199C24.4422 26.199 24.5301 26.2592 24.5687 26.3569L25.6305 28.9209C25.7078 29.1126 25.75 29.3156 25.75 29.5224C25.75 30.3457 25.1137 31.0111 24.3438 31.0111C23.5738 31.0111 22.9375 30.3457 22.9375 29.5224C22.9375 29.3156 22.9797 29.1088 23.057 28.9209Z" fill="#38BDF8"/>
</svg>
