<svg width="38" height="40" viewBox="0 0 38 40" fill="none" xmlns="http://www.w3.org/2000/svg">
<ellipse cx="19" cy="19.783" rx="19" ry="19.783" fill="#F6EE8F"/>
<path d="M16.1716 23.3422C15.4214 22.54 15 21.4521 15 20.3176C15 19.1832 15.4214 18.0952 16.1716 17.293C16.9217 16.4909 17.9391 16.0402 19 16.0402C20.0609 16.0402 21.0783 16.4909 21.8284 17.293C22.5786 18.0952 23 19.1832 23 20.3176C23 21.4521 22.5786 22.54 21.8284 23.3422C21.0783 24.1444 20.0609 24.595 19 24.595C17.9391 24.595 16.9217 24.1444 16.1716 23.3422Z" fill="#FACC15"/>
<path d="M10 20.3176H11M19 10.6935V11.7628M27 20.3176H28M19 28.8724V29.9418M12.6 13.4738L13.3 14.2223M25.4 13.4738L24.7 14.2223M24.7 26.4129L25.4 27.1615M13.3 26.4129L12.6 27.1615M15 20.3176C15 21.4521 15.4214 22.54 16.1716 23.3422C16.9217 24.1444 17.9391 24.595 19 24.595C20.0609 24.595 21.0783 24.1444 21.8284 23.3422C22.5786 22.54 23 21.4521 23 20.3176C23 19.1832 22.5786 18.0952 21.8284 17.293C21.0783 16.4909 20.0609 16.0402 19 16.0402C17.9391 16.0402 16.9217 16.4909 16.1716 17.293C15.4214 18.0952 15 19.1832 15 20.3176Z" stroke="#FACC15" stroke-width="2" stroke-linecap="round" stroke-linejoin="round"/>
</svg>
