<svg width="38" height="40" viewBox="0 0 38 40" fill="none" xmlns="http://www.w3.org/2000/svg">
<ellipse cx="19" cy="19.783" rx="19" ry="19.783" fill="#F6CE98"/>
<path d="M27 22.8303C27 27.3804 24.382 29.3768 22.359 30.0494C21.927 30.1927 21.644 29.6549 21.902 29.2581C22.782 27.9054 23.8 25.8416 23.8 23.8996C23.8 21.8144 22.156 19.3506 20.872 17.8321C20.579 17.4846 20.067 17.7145 20.051 18.1829C19.998 19.7324 19.769 21.8058 18.783 23.4302C18.7482 23.491 18.7 23.5418 18.6428 23.5783C18.5855 23.6149 18.5208 23.636 18.4542 23.6399C18.3876 23.6438 18.3212 23.6303 18.2605 23.6007C18.1999 23.5711 18.1468 23.5261 18.106 23.4697C17.798 23.0527 17.49 22.5373 17.182 22.1309C17.016 21.9117 16.716 21.9096 16.525 22.1031C15.778 22.8591 14.733 24.0376 14.733 25.5036C14.733 26.5623 15.205 27.8776 15.691 28.8978C15.911 29.3608 15.502 29.904 15.081 29.6442C13.246 28.5074 11 26.1527 11 22.8303C11 19.4661 15.31 14.8048 16.956 10.4012C17.216 9.70615 18.016 9.38 18.573 9.8334C21.943 12.5795 27 17.8877 27 22.8303Z" fill="#F97316" stroke="#F97316" stroke-width="1.5"/>
</svg>
