<svg width="100" height="100" viewBox="0 0 100 100" fill="none" xmlns="http://www.w3.org/2000/svg">
<path d="M49.5766 0.0281982C24.2516 0.0281982 25.8328 11.0537 25.8328 11.0537L25.8609 22.4764H50.0281V25.9058H16.2621C16.2621 25.9058 0.0566406 24.0607 0.0566406 49.7137C0.0566406 75.3674 14.2012 74.4576 14.2012 74.4576H22.6426V62.5533C22.6426 62.5533 22.1875 48.3533 36.5613 48.3533H60.5309C60.5309 48.3533 73.9977 48.5717 73.9977 35.287V13.3215C73.9977 13.3215 76.043 0.0281982 49.5766 0.0281982ZM36.2508 7.70977C36.8219 7.70925 37.3875 7.82179 37.9152 8.04096C38.4429 8.26012 38.9224 8.58161 39.3262 8.98701C39.73 9.39241 40.0502 9.87378 40.2685 10.4036C40.4869 10.9333 40.599 11.5011 40.5984 12.0745C40.599 12.6478 40.4869 13.2156 40.2685 13.7454C40.0502 14.2752 39.73 14.7565 39.3262 15.1619C38.9224 15.5673 38.4429 15.8888 37.9152 16.108C37.3875 16.3272 36.8219 16.4397 36.2508 16.4392C35.6797 16.4397 35.1141 16.3272 34.5864 16.108C34.0587 15.8888 33.5792 15.5673 33.1754 15.1619C32.7716 14.7565 32.4513 14.2752 32.233 13.7454C32.0147 13.2156 31.9026 12.6478 31.9031 12.0745C31.9026 11.5011 32.0147 10.9333 32.233 10.4036C32.4513 9.87378 32.7716 9.39241 33.1754 8.98701C33.5792 8.58161 34.0587 8.26012 34.5864 8.04096C35.1141 7.82179 35.6797 7.70925 36.2508 7.70977Z" fill="url(#paint0_linear_89_71)"/>
<path d="M50.2957 99.6573C75.6207 99.6573 74.0395 88.6318 74.0395 88.6318L74.0113 77.2094H49.8438V73.78H83.6098C83.6098 73.78 99.8152 75.6251 99.8152 49.9714C99.8152 24.3181 85.6707 25.2279 85.6707 25.2279H77.2293V37.1318C77.2293 37.1318 77.6844 51.3318 63.3105 51.3318H39.341C39.341 51.3318 25.8742 51.1134 25.8742 64.3985V86.3643C25.8742 86.3643 23.8293 99.6573 50.2953 99.6573M63.6211 91.9765C63.05 91.977 62.4844 91.8645 61.9567 91.6453C61.429 91.4261 60.9495 91.1047 60.5457 90.6992C60.1419 90.2938 59.8216 89.8125 59.6033 89.2827C59.385 88.7529 59.2729 88.1851 59.2734 87.6118C59.2729 87.0384 59.3849 86.4706 59.6032 85.9408C59.8215 85.4109 60.1417 84.9295 60.5456 84.5241C60.9494 84.1186 61.4289 83.7971 61.9566 83.5779C62.4844 83.3587 63.05 83.2462 63.6211 83.2467C64.1922 83.2462 64.7578 83.3587 65.2855 83.5779C65.8132 83.797 66.2927 84.1185 66.6965 84.5239C67.1003 84.9293 67.4205 85.4107 67.6389 85.9405C67.8572 86.4703 67.9693 87.0381 67.9688 87.6114C67.9693 88.1847 67.8572 88.7525 67.6389 89.2823C67.4205 89.8121 67.1003 90.2935 66.6965 90.6989C66.2927 91.1043 65.8132 91.4257 65.2855 91.6449C64.7578 91.8641 64.1922 91.977 63.6211 91.9765Z" fill="url(#paint1_linear_89_71)"/>
<defs>
<linearGradient id="paint0_linear_89_71" x1="9.64341" y1="8.98923" x2="59.2723" y2="57.9311" gradientUnits="userSpaceOnUse">
<stop stop-color="#387EB8"/>
<stop offset="1" stop-color="#366994"/>
</linearGradient>
<linearGradient id="paint1_linear_89_71" x1="39.988" y1="40.5415" x2="93.2741" y2="90.7178" gradientUnits="userSpaceOnUse">
<stop stop-color="#FFE052"/>
<stop offset="1" stop-color="#FFC331"/>
</linearGradient>
</defs>
</svg>
