<svg width="100" height="100" viewBox="0 0 100 100" fill="none" xmlns="http://www.w3.org/2000/svg">
<path d="M18.9062 12.6563C16.8747 14.6876 15.2632 17.0992 14.1638 19.7533C13.0643 22.4075 12.4984 25.2522 12.4984 28.125C12.4984 30.9979 13.0643 33.8426 14.1638 36.4967C15.2632 39.1509 16.8747 41.5625 18.9062 43.5938C21.8562 46.6563 26.3937 42.1188 23.325 39.175C21.8736 37.7241 20.7223 36.0014 19.9369 34.1054C19.1514 32.2094 18.7471 30.1773 18.7471 28.125C18.7471 26.0728 19.1514 24.0406 19.9369 22.1446C20.7223 20.2487 21.8736 18.526 23.325 17.075C26.375 14.1313 21.7437 9.73127 18.9062 12.6563ZM70.425 17.075C71.8764 18.526 73.0276 20.2487 73.8131 22.1446C74.5986 24.0406 75.0029 26.0728 75.0029 28.125C75.0029 30.1773 74.5986 32.2094 73.8131 34.1054C73.0276 36.0014 71.8764 37.7241 70.425 39.175C67.3562 42.1125 71.8938 46.6563 74.8438 43.5938C76.8753 41.5625 78.4868 39.1509 79.5862 36.4967C80.6857 33.8426 81.2516 30.9979 81.2516 28.125C81.2516 25.2522 80.6857 22.4075 79.5862 19.7533C78.4868 17.0992 76.8753 14.6876 74.8438 12.6563C72.0125 9.73127 67.375 14.1313 70.425 17.075ZM46.825 12.45C46.4146 12.4565 46.0095 12.5438 45.6329 12.7069C45.2562 12.87 44.9154 13.1057 44.6298 13.4006C44.3443 13.6954 44.1196 14.0436 43.9686 14.4253C43.8177 14.807 43.7434 15.2146 43.75 15.625V18.75H40.625C40.093 18.7506 39.5699 18.887 39.1053 19.1462C38.6407 19.4055 38.25 19.7791 37.9702 20.2317C37.6904 20.6842 37.5308 21.2007 37.5065 21.7322C37.4822 22.2637 37.594 22.7926 37.8312 23.2688L40.9562 29.5188C41.2152 30.0384 41.6137 30.4756 42.1071 30.7813C42.6006 31.0871 43.1695 31.2494 43.75 31.25V59.375C43.75 65.1063 42.2625 71.85 40.0625 77.3563C37.8625 82.8625 34.6187 87.0125 32.9812 87.8313C30.0375 89.3063 31.0812 93.7438 34.375 93.75H59.375C62.6688 93.7438 63.7125 89.3063 60.7687 87.8313C59.1312 87.0125 55.8937 82.8625 53.6875 77.3563C51.4875 71.8563 50 65.1063 50 59.375V31.25C50.5805 31.2494 51.1494 31.0871 51.6429 30.7813C52.1363 30.4756 52.5348 30.0384 52.7937 29.5188L55.9187 23.2688C56.156 22.7926 56.2678 22.2637 56.2435 21.7322C56.2192 21.2007 56.0596 20.6842 55.7798 20.2317C55.5 19.7791 55.1093 19.4055 54.6447 19.1462C54.1801 18.887 53.657 18.7506 53.125 18.75H50V15.625C50.0068 15.2062 49.9292 14.7903 49.7721 14.4021C49.6149 14.0138 49.3813 13.6611 49.0851 13.3649C48.7889 13.0687 48.4362 12.8351 48.048 12.6779C47.6597 12.5208 47.2438 12.4433 46.825 12.45ZM30 20.5438C29.5804 20.543 29.1649 20.6266 28.7783 20.7899C28.3918 20.9531 28.042 21.1925 27.75 21.4938C26.8788 22.3644 26.1877 23.3982 25.7162 24.536C25.2447 25.6738 25.002 26.8934 25.002 28.125C25.002 29.3567 25.2447 30.5763 25.7162 31.7141C26.1877 32.8519 26.8788 33.8856 27.75 34.7563C30.7 37.8188 35.2375 33.2813 32.1687 30.3375C31.8777 30.0472 31.6468 29.7024 31.4893 29.3227C31.3318 28.9431 31.2507 28.5361 31.2507 28.125C31.2507 27.714 31.3318 27.307 31.4893 26.9273C31.6468 26.5477 31.8777 26.2028 32.1687 25.9125C32.6151 25.4798 32.9223 24.9238 33.0509 24.3156C33.1796 23.7074 33.124 23.0747 32.8911 22.4983C32.6583 21.9219 32.2588 21.428 31.7438 21.0799C31.2288 20.7317 30.6217 20.545 30 20.5438ZM63.7625 20.5438C63.139 20.5425 62.5294 20.7278 62.012 21.0758C61.4947 21.4238 61.0932 21.9186 60.8593 22.4966C60.6255 23.0745 60.5698 23.7093 60.6996 24.3191C60.8293 24.929 61.1386 25.4861 61.5875 25.9188C62.1733 26.5048 62.5025 27.2995 62.5025 28.1281C62.5025 28.9568 62.1733 29.7515 61.5875 30.3375C58.525 33.275 63.0625 37.8188 66.0062 34.7563C67.7638 32.9982 68.7511 30.6141 68.7511 28.1281C68.7511 25.6422 67.7638 23.2581 66.0062 21.5C65.7155 21.1984 65.367 20.9582 64.9815 20.794C64.5961 20.6297 64.1815 20.5446 63.7625 20.5438Z" fill="#22C55E"/>
</svg>
