<svg width="100" height="100" viewBox="0 0 100 100" fill="none" xmlns="http://www.w3.org/2000/svg">
<path d="M33.7236 33.8959C38.7694 28.85 39.1875 20.8222 34.9319 15.2847C34.8104 15.1273 34.6568 14.9974 34.4813 14.9039C34.3058 14.8103 34.1124 14.7551 33.914 14.742C33.7155 14.7288 33.5165 14.758 33.3302 14.8277C33.1439 14.8973 32.9745 15.0058 32.8333 15.1459L15.2778 32.7C15.1405 32.8384 15.0336 33.004 14.9638 33.186C14.8941 33.3681 14.8631 33.5627 14.8727 33.7574C14.8824 33.9521 14.9326 34.1427 15.02 34.317C15.1074 34.4912 15.2302 34.6453 15.3806 34.7695C17.9941 36.9428 21.3269 38.0583 24.7221 37.8964C28.1173 37.7344 31.3288 36.3067 33.7236 33.8945" fill="#707780"/>
<path d="M21.8444 94.0667L6.13056 78.3528C5.87018 78.0923 5.72391 77.7391 5.72391 77.3708C5.72391 77.0026 5.87018 76.6494 6.13056 76.3889L27.1028 55.4167C27.2318 55.2875 27.3849 55.1851 27.5536 55.1152C27.7222 55.0453 27.9029 55.0093 28.0854 55.0093C28.2679 55.0093 28.4487 55.0453 28.6173 55.1152C28.7859 55.1851 28.9391 55.2875 29.0681 55.4167L44.7819 71.1292C45.0423 71.3896 45.1886 71.7428 45.1886 72.1111C45.1886 72.4794 45.0423 72.8326 44.7819 73.0931L23.8097 94.0653C23.6807 94.1944 23.5276 94.2969 23.3589 94.3668C23.1903 94.4367 23.0096 94.4726 22.8271 94.4726C22.6446 94.4726 22.4638 94.4367 22.2952 94.3668C22.1266 94.2969 21.9734 94.1958 21.8444 94.0667ZM71.1292 44.782L55.4167 29.0681C55.1563 28.8076 55.01 28.4544 55.01 28.0861C55.01 27.7178 55.1563 27.3646 55.4167 27.1042L76.3889 6.13195C76.5179 6.00282 76.6711 5.90038 76.8397 5.83048C77.0083 5.76059 77.189 5.72461 77.3715 5.72461C77.554 5.72461 77.7348 5.76059 77.9034 5.83048C78.072 5.90038 78.2252 6.00282 78.3542 6.13195L94.068 21.8445C94.3284 22.1049 94.4747 22.4581 94.4747 22.8264C94.4747 23.1947 94.3284 23.5479 94.068 23.8083L73.0958 44.7806C72.9668 44.9097 72.8137 45.0121 72.6451 45.082C72.4764 45.1519 72.2957 45.1879 72.1132 45.1879C71.9307 45.1879 71.7499 45.1519 71.5813 45.082C71.4127 45.0121 71.2595 44.9097 71.1306 44.7806" fill="#1E3A6D"/>
<path d="M72.1111 54.4333L54.4333 72.1111C54.1729 72.3715 53.8197 72.5178 53.4514 72.5178C53.0831 72.5178 52.7299 72.3715 52.4695 72.1111L32.8278 52.4695C32.5674 52.209 32.4211 51.8558 32.4211 51.4875C32.4211 51.1192 32.5674 50.766 32.8278 50.5056L50.5056 32.8278C50.766 32.5674 51.1192 32.4211 51.4875 32.4211C51.8558 32.4211 52.209 32.5674 52.4695 32.8278L72.1111 52.4695C72.3715 52.7299 72.5178 53.0831 72.5178 53.4514C72.5178 53.8197 72.3715 54.1729 72.1111 54.4333Z" fill="#707780"/>
<path d="M50.5055 32.8278L32.8278 50.5055C32.5673 50.7659 32.2141 50.9122 31.8458 50.9122C31.4775 50.9122 31.1243 50.7659 30.8639 50.5055L24.9708 44.6125C24.7104 44.352 24.5642 43.9988 24.5642 43.6305C24.5642 43.2622 24.7104 42.909 24.9708 42.6486L42.6486 24.9722C42.9091 24.7118 43.2623 24.5656 43.6305 24.5656C43.9988 24.5656 44.352 24.7118 44.6125 24.9722L50.5055 30.8653C50.7659 31.1257 50.9122 31.4789 50.9122 31.8472C50.9122 32.2155 50.7659 32.5673 50.5055 32.8278ZM74.0764 62.2916L62.2903 74.0764C62.0298 74.3367 61.6766 74.483 61.3083 74.483C60.94 74.483 60.5868 74.3367 60.3264 74.0764L57.3805 71.1291C57.1202 70.8687 56.9739 70.5155 56.9739 70.1472C56.9739 69.7789 57.1202 69.4257 57.3805 69.1652L69.1653 57.3805C69.4257 57.1202 69.7789 56.9739 70.1472 56.9739C70.5155 56.9739 70.8687 57.1202 71.1292 57.3805L74.075 60.3264C74.3354 60.5868 74.4816 60.94 74.4816 61.3083C74.4816 61.6766 74.3354 62.0298 74.075 62.2902" fill="#1E3A6D"/>
<path d="M19.0781 19.0781C20.1629 17.9933 20.1629 16.2345 19.0781 15.1497C17.9933 14.0649 16.2345 14.0649 15.1497 15.1497C14.0649 16.2345 14.0649 17.9933 15.1497 19.0781C16.2345 20.1629 17.9933 20.1629 19.0781 19.0781Z" fill="#1E3A6D"/>
<path d="M63.1944 36.8055L59.8194 40.1805M40.1805 59.8194L36.8333 63.1805L36.1111 63.8888M16.6667 19.4444V30.5555M31.9444 16.6666H19.4444" stroke="#1E3A6D" stroke-width="0.5" stroke-miterlimit="10"/>
<path d="M33.7236 33.8958C38.7694 28.85 39.1875 20.8222 34.9319 15.2847C34.8104 15.1273 34.6568 14.9974 34.4813 14.9038C34.3058 14.8103 34.1124 14.7551 33.914 14.7419C33.7155 14.7288 33.5165 14.758 33.3302 14.8277C33.1439 14.8973 32.9745 15.0058 32.8333 15.1458L15.2778 32.7C15.1405 32.8384 15.0336 33.004 14.9638 33.186C14.8941 33.3681 14.8631 33.5627 14.8727 33.7574C14.8824 33.9521 14.9326 34.1427 15.02 34.3169C15.1074 34.4912 15.2302 34.6453 15.3806 34.7695C17.9941 36.9427 21.3269 38.0583 24.7221 37.8964C28.1173 37.7344 31.3288 36.3066 33.7236 33.8945M71.1292 44.782L55.4167 29.0681C55.1563 28.8076 55.01 28.4544 55.01 28.0861C55.01 27.7178 55.1563 27.3646 55.4167 27.1042L76.3889 6.13195C76.5179 6.00282 76.6711 5.90038 76.8397 5.83048C77.0083 5.76059 77.189 5.72461 77.3715 5.72461C77.554 5.72461 77.7348 5.76059 77.9034 5.83048C78.072 5.90038 78.2252 6.00282 78.3542 6.13195L94.068 21.8445C94.3284 22.1049 94.4747 22.4581 94.4747 22.8264C94.4747 23.1947 94.3284 23.5479 94.068 23.8083L73.0958 44.7806C72.9668 44.9097 72.8137 45.0121 72.6451 45.082C72.4764 45.1519 72.2957 45.1879 72.1132 45.1879C71.9307 45.1879 71.7499 45.1519 71.5813 45.082C71.4127 45.0121 71.2595 44.9097 71.1306 44.7806M21.8444 94.0667L6.13056 78.3528C5.87018 78.0923 5.72391 77.7391 5.72391 77.3708C5.72391 77.0026 5.87018 76.6494 6.13056 76.3889L27.1028 55.4167C27.2318 55.2875 27.3849 55.1851 27.5536 55.1152C27.7222 55.0453 27.9029 55.0093 28.0854 55.0093C28.2679 55.0093 28.4487 55.0453 28.6173 55.1152C28.7859 55.1851 28.9391 55.2875 29.0681 55.4167L44.7819 71.1292C45.0423 71.3896 45.1886 71.7428 45.1886 72.1111C45.1886 72.4794 45.0423 72.8326 44.7819 73.0931L23.8097 94.0653C23.6807 94.1944 23.5276 94.2969 23.3589 94.3668C23.1903 94.4367 23.0096 94.4726 22.8271 94.4726C22.6446 94.4726 22.4638 94.4367 22.2952 94.3668C22.1266 94.2969 21.9734 94.1958 21.8444 94.0667ZM72.1111 54.4333L54.4333 72.1111C54.1729 72.3715 53.8197 72.5178 53.4514 72.5178C53.0831 72.5178 52.7299 72.3715 52.4694 72.1111L32.8278 52.4695C32.5674 52.209 32.4211 51.8558 32.4211 51.4875C32.4211 51.1192 32.5674 50.766 32.8278 50.5056L50.5056 32.8278C50.766 32.5674 51.1192 32.4211 51.4875 32.4211C51.8558 32.4211 52.209 32.5674 52.4694 32.8278L72.1111 52.4695C72.3715 52.7299 72.5178 53.0831 72.5178 53.4514C72.5178 53.8197 72.3715 54.1729 72.1111 54.4333Z" stroke="#1E3A6D" stroke-width="0.5" stroke-miterlimit="10" stroke-linecap="round" stroke-linejoin="round"/>
<path d="M74.0764 62.2916L62.2903 74.0764C62.0298 74.3367 61.6766 74.483 61.3083 74.483C60.94 74.483 60.5868 74.3367 60.3264 74.0764L57.3805 71.1291C57.1202 70.8687 56.9739 70.5155 56.9739 70.1472C56.9739 69.7789 57.1202 69.4257 57.3805 69.1652L69.1653 57.3805C69.4257 57.1202 69.7789 56.9739 70.1472 56.9739C70.5155 56.9739 70.8687 57.1202 71.1292 57.3805L74.075 60.3264C74.3354 60.5868 74.4816 60.94 74.4816 61.3083C74.4816 61.6766 74.3354 62.0298 74.075 62.2902M50.5055 32.8278L32.8278 50.5055C32.5673 50.7659 32.2141 50.9122 31.8458 50.9122C31.4775 50.9122 31.1243 50.7659 30.8639 50.5055L24.9708 44.6125C24.7104 44.352 24.5642 43.9988 24.5642 43.6305C24.5642 43.2622 24.7104 42.909 24.9708 42.6486L42.6486 24.9722C42.9091 24.7118 43.2623 24.5656 43.6305 24.5656C43.9988 24.5656 44.352 24.7118 44.6125 24.9722L50.5055 30.8653C50.7659 31.1257 50.9122 31.4789 50.9122 31.8472C50.9122 32.2155 50.7659 32.5673 50.5055 32.8278Z" stroke="#1E3A6D" stroke-width="0.5" stroke-miterlimit="10" stroke-linecap="round" stroke-linejoin="round"/>
<path d="M19.0781 19.0781C20.1629 17.9933 20.1629 16.2345 19.0781 15.1497C17.9933 14.0649 16.2345 14.0649 15.1497 15.1497C14.0649 16.2345 14.0649 17.9933 15.1497 19.0781C16.2345 20.1629 17.9933 20.1629 19.0781 19.0781Z" stroke="#1E3A6D" stroke-width="0.5" stroke-miterlimit="10" stroke-linecap="round" stroke-linejoin="round"/>
</svg>
